<?xml version="1.0" standalone="no"?>
<!DOCTYPE svg PUBLIC "-//W3C//DTD SVG 20010904//EN"
 "http://www.w3.org/TR/2001/REC-SVG-20010904/DTD/svg10.dtd">
<svg version="1.0" xmlns="http://www.w3.org/2000/svg"
 width="87.000000pt" height="87.000000pt" viewBox="0 0 87.000000 87.000000"
 preserveAspectRatio="xMidYMid meet">
<metadata>
Created by potrace 1.10, written by Peter Selinger 2001-2011
</metadata>
<g transform="translate(0.000000,87.000000) scale(0.100000,-0.100000)"
fill="#000000" stroke="none">
<path d="M420 819 c0 -24 23 -21 28 4 2 10 -3 17 -12 17 -10 0 -16 -9 -16 -21z"/>
<path d="M321 769 c-66 -26 -135 -93 -163 -157 -29 -64 -29 -170 -1 -233 26
-59 75 -113 129 -145 47 -28 56 -44 24 -44 -11 0 -20 -7 -20 -15 0 -8 -9 -15
-20 -15 -11 0 -20 -4 -20 -10 0 -5 9 -10 20 -10 11 0 20 -7 20 -15 0 -8 9 -15
20 -15 11 0 20 -6 20 -14 0 -22 48 -63 81 -70 42 -8 94 16 114 53 8 17 22 31
30 31 8 0 15 7 15 15 0 8 9 15 20 15 11 0 20 5 20 10 0 6 -9 10 -20 10 -11 0
-20 7 -20 15 0 8 -7 15 -15 15 -26 0 -16 27 15 40 50 21 124 110 145 175 43
139 -22 287 -158 357 -62 31 -166 35 -236 7z m225 -29 c208 -90 207 -398 -1
-497 -21 -10 -35 -24 -35 -35 0 -16 -9 -18 -80 -18 -73 0 -80 2 -80 20 0 13
-11 24 -32 33 -49 20 -95 63 -126 116 -24 40 -27 56 -27 131 0 62 5 94 18 117
75 138 225 193 363 133z m-48 -577 c-32 -2 -86 -2 -120 0 -35 2 -9 3 57 3 66
0 94 -1 63 -3z m-11 -30 c-31 -2 -83 -2 -115 0 -31 2 -5 3 58 3 63 0 89 -1 57
-3z m23 -32 c0 -17 -52 -51 -77 -51 -32 0 -60 16 -73 40 -10 19 -7 20 70 20
44 0 80 -4 80 -9z"/>
<path d="M430 743 c0 -5 26 -17 58 -26 109 -31 176 -117 175 -227 -2 -202
-245 -306 -392 -167 -38 37 -70 100 -71 140 0 18 -5 27 -15 27 -13 0 -15 -8
-9 -37 22 -131 158 -236 281 -219 119 16 213 109 229 228 13 97 -48 213 -137
258 -44 23 -119 37 -119 23z"/>
<path d="M310 638 c-33 -41 -41 -59 -37 -82 2 -16 -2 -42 -10 -58 -18 -35 -9
-82 20 -105 12 -10 27 -31 32 -48 13 -38 59 -62 94 -49 17 7 36 6 54 0 22 -8
32 -6 55 11 15 11 29 29 31 39 2 10 16 34 32 52 32 36 37 77 15 107 -8 11 -12
32 -9 50 7 42 -66 135 -106 135 -15 0 -32 -5 -39 -12 -9 -9 -15 -9 -24 0 -28
28 -65 14 -108 -40z m93 19 c16 -11 17 -30 15 -172 l-3 -160 -27 -3 c-57 -7
-73 76 -18 93 11 4 18 11 15 16 -10 16 -33 10 -55 -13 -21 -23 -22 -23 -36 -4
-26 36 -10 116 18 88 6 -6 18 -12 25 -12 21 0 15 25 -9 35 -52 23 -21 102 34
90 32 -8 40 14 8 22 -23 6 -26 19 -7 26 19 8 22 8 40 -6z m100 1 l22 -12 -23
-5 c-27 -7 -26 -27 1 -24 26 4 54 -13 60 -36 6 -23 -18 -61 -39 -61 -8 0 -14
-7 -14 -16 0 -11 6 -15 18 -11 46 13 47 12 50 -23 2 -19 -3 -44 -11 -54 -14
-19 -14 -19 -35 2 -21 21 -52 30 -52 16 0 -4 11 -17 25 -30 14 -13 25 -30 25
-38 0 -24 -31 -47 -59 -44 l-26 3 -3 160 c-2 142 -1 161 15 172 21 16 19 16
46 1z"/>
<path d="M182 741 c-10 -6 -9 -11 3 -21 11 -9 19 -10 26 -3 13 13 -12 35 -29
24z"/>
<path d="M653 735 c-3 -9 -3 -19 1 -22 8 -9 37 18 30 28 -8 14 -24 11 -31 -6z"/>
<path d="M80 505 c0 -8 9 -15 20 -15 11 0 20 7 20 15 0 8 -9 15 -20 15 -11 0
-20 -7 -20 -15z"/>
<path d="M740 505 c0 -8 9 -15 20 -15 11 0 20 7 20 15 0 8 -9 15 -20 15 -11 0
-20 -7 -20 -15z"/>
<path d="M676 301 c-7 -10 22 -37 30 -28 9 8 -3 37 -15 37 -5 0 -12 -4 -15 -9z"/>
</g>
</svg>
